<?xml version="1.0" standalone="no"?>
<!DOCTYPE svg PUBLIC "-//W3C//DTD SVG 20010904//EN" "http://www.w3.org/TR/2001/REC-SVG-20010904/DTD/svg10.dtd">
<!-- Created using Krita: https://krita.org -->
<svg xmlns="http://www.w3.org/2000/svg" 
    xmlns:xlink="http://www.w3.org/1999/xlink"
    xmlns:krita="http://krita.org/namespaces/svg/krita"
    xmlns:sodipodi="http://sodipodi.sourceforge.net/DTD/sodipodi-0.dtd"
    width="298.08pt"
    height="421.2pt"
    viewBox="0 0 298.08 421.2">
<defs>
  <radialGradient id="gradient0" gradientUnits="objectBoundingBox" cx="0" cy="0" fx="0" fy="0" r="1.4142135623731" spreadMethod="pad">
   <stop stop-color="#19c108" offset="0.141975313425064" stop-opacity="0.988235294117647"/>
   <stop stop-color="#053508" offset="0.969135820865631" stop-opacity="0.929411764705882"/>
   <stop stop-color="#0d500f" offset="1" stop-opacity="0"/>
  </radialGradient>
  <radialGradient id="gradient1" gradientUnits="objectBoundingBox" cx="0" cy="0" fx="0" fy="0" r="1.4142135623731" spreadMethod="reflect">
   <stop stop-color="#696a09" offset="0.0740740740740741" stop-opacity="1"/>
   <stop stop-color="#fbff00" offset="0.5" stop-opacity="0.988235294117647"/>
   <stop stop-color="#6b6c0b" offset="0.944444444444444" stop-opacity="1"/>
  </radialGradient>
 </defs>
<path id="shape0" transform="matrix(0.999999979490875 0 0 0.999999979490875 77.8147332970968 76.4948921679909)" fill="url(#gradient0)" fill-rule="evenodd" stroke="#000000" stroke-width="3.6" stroke-linecap="square" stroke-linejoin="bevel" d="M70.7177 0L68.0207 0.159212L65.3907 0.37804L62.8247 0.655283L60.3227 0.989437L57.8837 1.3792L55.5077 1.82307L53.1937 2.31984L50.9397 2.86791L48.7477 3.46618L46.6147 4.11305L44.5407 4.80711L42.5247 5.54716L40.5661 6.33179L38.6645 7.15941L36.8191 8.02891L35.029 8.9388L33.2935 9.88755L31.6119 10.8741L29.9835 11.8968L28.4076 12.9544L26.8833 14.0454L25.4101 15.1685L23.9872 16.3223L22.6138 17.5055L21.2893 18.7166L20.0129 19.9544L18.7839 21.2172L17.6015 22.5039L16.4651 23.8131L15.3739 25.1433L14.3272 26.4932L13.3243 27.8613L12.3645 29.2464L11.4469 30.647L10.571 32.0618L9.736 33.4892L8.9411 34.9282L8.1856 36.3771L7.4689 37.8346L6.7901 39.2994L6.1486 40.77L5.5437 42.2452L4.9746 43.7234L4.4405 45.2034L3.9409 46.6837L3.4748 48.1629L3.0418 49.6398L2.6409 51.1127L2.2715 52.5806L1.9328 54.042L1.6242 55.4953L1.3449 56.9393L1.0942 58.3727L0.8713 59.7939L0.6756 61.2017L0.5063 62.5946L0.3627 63.9714L0.244 65.3305L0.1496 66.6706L0.0787 67.9904L0.0307 69.2884L0.0047 70.5633L0 71.8137L0.0485 74.4962L0.1675 77.1134L0.3553 79.6685L0.61 82.1647L0.9301 84.6055L1.3138 86.9932L1.7593 89.3317L2.2649 91.6252L2.8289 93.8746L3.4496 96.086L4.1252 98.2602L4.8541 100.401L5.6344 102.514L6.4645 104.599L7.3427 106.661L8.2671 108.703L9.2362 110.728L10.2481 112.739L11.3011 114.74L12.3936 116.734L13.5237 118.724L14.6898 120.714L15.8901 122.707L17.1229 124.705L18.3865 126.712L19.6791 128.732L20.9991 130.768L22.3446 132.822L23.7141 134.898L25.1056 137L26.5176 139.13L27.9483 141.291L29.3959 143.489L30.8588 145.724L32.3352 148.002L33.8234 150.323L35.3216 152.693L36.8282 155.113L38.3413 157.589L39.8594 160.122L41.3806 162.716L42.9037 165.375L44.4257 168.1L45.9457 170.897L47.4627 173.767L48.9737 176.715L50.4777 179.743L51.9727 182.855L53.4567 186.053L54.9287 189.342L56.3867 192.724L57.8287 196.203L59.2527 199.782L60.6577 203.463L62.0417 207.252L63.4037 211.149L64.7397 215.159L66.0507 219.286L67.3337 223.531L68.5867 227.9L69.8087 232.394L70.9967 237.017L72.1507 241.773L73.4467 236.854L74.7687 232.072L76.1147 227.421L77.4817 222.899L78.8707 218.503L80.2787 214.229L81.7037 210.074L83.1457 206.035L84.6017 202.107L86.0707 198.29L87.5507 194.579L89.0417 190.97L90.5407 187.461L92.0457 184.047L93.5567 180.727L95.0717 177.496L96.5877 174.352L98.1057 171.29L99.6217 168.309L101.136 165.405L102.646 162.572L104.15 159.811L105.648 157.116L107.136 154.484L108.614 151.913L110.081 149.399L111.534 146.938L112.973 144.529L114.395 142.165L115.798 139.847L117.183 137.568L118.546 135.327L119.887 133.119L121.204 130.943L122.495 128.795L123.758 126.67L124.993 124.567L126.198 122.482L127.37 120.41L128.509 118.35L129.613 116.298L130.681 114.251L131.71 112.205L132.7 110.157L133.649 108.103L134.555 106.042L135.416 103.969L136.232 101.881L137 99.7752L137.719 97.647L138.388 95.4948L139.005 93.3145L139.568 91.1022L140.077 88.8568L140.528 86.5723L140.921 84.2474L141.255 81.878L141.527 79.4609L141.736 76.993L141.881 74.471L141.96 71.8915L141.971 69.2513L141.913 66.5474L141.831 64.7005L141.712 62.8734L141.555 61.0659L141.36 59.2787L141.129 57.512L140.861 55.7658L140.556 54.0408L140.214 52.337L139.836 50.6549L139.422 48.9947L138.972 47.3567L138.487 45.741L137.965 44.1482L137.409 42.5785L136.817 41.0321L136.19 39.5094L135.528 38.0106L134.832 36.536L134.101 35.086L133.336 33.6608L132.537 32.2606L131.704 30.886L130.837 29.5369L129.937 28.2139L129.004 26.9171L128.037 25.6469L127.038 24.4037L126.005 23.1875L124.94 21.9988L123.843 20.8378L122.714 19.7048L121.553 18.6002L120.359 17.5242L119.135 16.477L117.879 15.4592L116.591 14.4707L115.273 13.5121L113.923 12.5836L112.543 11.6854L111.133 10.8179L109.692 9.98134L108.221 9.17606L106.721 8.40225L105.19 7.66029L103.63 6.9505L102.041 6.27308L100.423 5.62842L98.7747 5.01672L97.0987 4.43829L95.3937 3.89352L93.6607 3.38252L91.8997 2.90579L90.1107 2.46342L88.2927 2.05592L86.4487 1.68339L84.5757 1.34623L82.6767 1.04464L80.7497 0.779025L78.7967 0.549576L76.8157 0.356698L74.8097 0.200593L72.7767 0.0815596L70.7177 0M108.943 69.6592L108.908 68.0491L108.801 66.4571L108.625 64.8845L108.382 63.333L108.072 61.8038L107.698 60.2986L107.26 58.8187L106.761 57.3658L106.201 55.9411L105.583 54.5462L104.907 53.1826L104.176 51.8517L103.391 50.5549L102.552 49.2939L101.663 48.07L100.723 46.8847L99.7357 45.7395L98.7007 44.6358L97.6217 43.5751L96.4977 42.5589L95.3327 41.5887L94.1257 40.6659L92.8797 39.792L91.5967 38.9684L90.2767 38.1967L88.9217 37.4782L87.5337 36.8146L86.1147 36.2071L84.6637 35.6573L83.1847 35.1667L81.6787 34.7368L80.1467 34.369L78.5907 34.0648L77.0107 33.8256L75.4107 33.6529L73.7897 33.5483L72.1507 33.513L70.5117 33.5483L68.8917 33.6529L67.2907 33.8256L65.7117 34.0648L64.1547 34.369L62.6227 34.7368L61.1167 35.1667L59.6377 35.6573L58.1877 36.2071L56.7677 36.8146L55.3797 37.4782L54.0247 38.1967L52.7057 38.9684L51.4217 39.792L50.1757 40.6659L48.9697 41.5887L47.8037 42.5589L46.6807 43.5751L45.6007 44.6358L44.5667 45.7395L43.5787 46.8847L42.6397 48.07L41.7499 49.2939L40.9116 50.5549L40.126 51.8517L39.3948 53.1826L38.7192 54.5462L38.1009 55.9411L37.5413 57.3658L37.042 58.8187L36.6044 60.2986L36.23 61.8038L35.9203 63.333L35.6769 64.8845L35.5011 66.4571L35.3946 68.0491L35.3587 69.6592L35.3946 71.2693L35.5011 72.8614L35.6769 74.4339L35.9203 75.9855L36.23 77.5146L36.6044 79.0199L37.042 80.4998L37.5413 81.9527L38.1009 83.3774L38.7192 84.7718L39.3948 86.1355L40.126 87.4671L40.9116 88.7636L41.7499 90.0241L42.6397 91.2485L43.5787 92.4338L44.5667 93.5791L45.6007 94.6822L46.6807 95.7433L47.8037 96.7593L48.9697 97.7302L50.1757 98.653L51.4217 99.5267L52.7057 100.35L54.0247 101.122L55.3797 101.84L56.7677 102.504L58.1877 103.112L59.6377 103.661L61.1167 104.152L62.6227 104.582L64.1547 104.949L65.7117 105.254L67.2907 105.492L68.8917 105.666L70.5117 105.77L72.1507 105.805L73.7897 105.77L75.4107 105.666L77.0107 105.492L78.5907 105.254L80.1467 104.949L81.6787 104.582L83.1847 104.152L84.6637 103.661L86.1147 103.112L87.5337 102.504L88.9217 101.84L90.2767 101.122L91.5967 100.35L92.8797 99.5267L94.1257 98.653L95.3327 97.7302L96.4977 96.7593L97.6217 95.7433L98.7007 94.6822L99.7357 93.5791L100.723 92.4338L101.663 91.2485L102.552 90.0241L103.391 88.7636L104.176 87.4671L104.907 86.1355L105.583 84.7718L106.201 83.3774L106.761 81.9527L107.26 80.4998L107.698 79.0199L108.072 77.5146L108.382 75.9855L108.625 74.4339L108.801 72.8614L108.908 71.2693L108.943 69.6592"/><path id="shape1" transform="matrix(0.999999979490875 0 0 0.999999979490875 132.794100333189 114.715918086678)" fill="url(#gradient1)" fill-rule="evenodd" stroke="#000000" stroke-opacity="0" stroke-width="0" stroke-linecap="square" stroke-linejoin="bevel" d="M7.16731 60.6832L13.8568 37.27L0 34.8809L26.2801 0L18.1572 25.3245L32.4918 27.7136C32.4918 27.7136 24.0503 38.7035 7.16731 60.6832Z"/>
</svg>
